<svg xmlns="http://www.w3.org/2000/svg" version="1.1" xmlns:xlink="http://www.w3.org/1999/xlink" xmlns:svgjs="http://svgjs.com/svgjs" width="1440" height="560" preserveAspectRatio="none" viewBox="0 0 1440 560"><g mask="url(&quot;#SvgjsMask1002&quot;)" fill="none"><rect width="1440" height="560" x="0" y="0" fill="url(#SvgjsLinearGradient1003)"></rect><path d="M1440 0L1385.57 0L1440 70.76z" fill="rgba(255, 255, 255, .1)"></path><path d="M1385.57 0L1440 70.76L1440 232.14L640.26 0z" fill="rgba(255, 255, 255, .075)"></path><path d="M640.2600000000001 0L1440 232.14L1440 261.13L422.4900000000001 0z" fill="rgba(255, 255, 255, .05)"></path><path d="M422.4900000000001 0L1440 261.13L1440 439.46000000000004L179.82000000000014 0z" fill="rgba(255, 255, 255, .025)"></path><path d="M0 560L450.36 560L0 454.62z" fill="rgba(0, 0, 0, .1)"></path><path d="M0 454.62L450.36 560L933.33 560L0 269.23z" fill="rgba(0, 0, 0, .075)"></path><path d="M0 269.23L933.33 560L1220.04 560L0 166.73000000000002z" fill="rgba(0, 0, 0, .05)"></path><path d="M0 166.73000000000002L1220.04 560L1229.48 560L0 74.66000000000003z" fill="rgba(0, 0, 0, .025)"></path></g><defs><mask id="SvgjsMask1002"><rect width="1440" height="560" fill="#ffffff"></rect></mask><linearGradient x1="15.28%" y1="-39.29%" x2="84.72%" y2="139.29%" gradientUnits="userSpaceOnUse" id="SvgjsLinearGradient1003"><stop stop-color="#0e2a47" offset="0"></stop><stop stop-color="#00459e" offset="1"></stop></linearGradient></defs></svg>